<svg viewBox="0 0 117 32" fill="none" xmlns="http://www.w3.org/2000/svg"><path d="M52.532 6.837C45.737 2.24 37.76 0 29.722 0 21.628 0 13.71 2.24 6.856 6.837l-1.064.746v.23c7.327-4.021 15.6-5.975 23.932-5.975 8.332-.057 16.546 1.954 23.932 5.975v-.23l-1.123-.746zm-16.841 5.975v-.862h-3.309c-.65 0-1.891 0-3.723.057-1.832 0-3.132.058-3.84.058-.71 0-2.246-.058-3.133-.058h-.59s-2.305.058-2.955.058c-.71 0-1.89-.058-3.427-.115v.862c1.122 0 1.772.057 2.068.172a.862.862 0 01.532.345c.118.172.177.689.177 1.55.06 1.207.06 2.414.06 3.678v4.25c0 1.207-.06 2.184-.12 2.988-.117.805-.236 1.437-.413 1.839-.177.46-.532.861-.945 1.206-.414.345-1.005.69-1.832.92-.827.23-1.773.402-2.836.402a11.24 11.24 0 01-2.482-.288c-.768-.172-1.3-.46-1.773-.746-.59-.403-1.005-.92-1.24-1.552-.237-.632-.415-1.953-.415-3.906v-5.114c.06-2.412.06-3.734.06-3.906 0-.69.118-1.15.236-1.322.059-.114.236-.23.473-.344.236-.058.945-.115 2.068-.172v-.862c-1.3.057-2.66.115-4.018.115-1.36 0-2.778-.058-4.314-.115v.862c1.123 0 1.832.057 2.068.172a.862.862 0 01.532.345c.118.172.177.689.177 1.55 0 1.207.06 2.414.06 3.678v6.147c0 1.78.118 3.045.413 3.791a4.36 4.36 0 001.182 1.667c.532.574 1.359.976 2.482 1.32 1.063.346 2.363.518 3.781.518 1.241 0 2.423-.115 3.428-.402 1.004-.287 1.89-.69 2.54-1.207.887-.689 1.478-1.493 1.832-2.413.355-.919.473-2.47.473-4.768v-4.654c0-2.412.06-3.734.06-3.906 0-.69.117-1.15.236-1.322.118-.114.236-.23.532-.344.177-.058.709-.115 1.536-.115.295 0 1.773.057 2.009.115a.862.862 0 01.532.345c.118.172.177.689.177 1.55 0 1.207.06 2.414.06 3.678v6.434c-.06 2.413-.06 3.734-.06 3.907 0 .69-.118 1.149-.236 1.321-.118.115-.237.23-.532.345-.236.057-.945.115-2.068.172v.862c2.068-.058 3.604-.115 4.727-.115 1.182 0 2.423.057 3.605.115v-.862c-1.123 0-1.832-.057-2.069-.172-.236-.058-.413-.23-.531-.345-.119-.172-.178-.69-.178-1.551-.059-1.207-.059-2.413-.059-3.677v-2.815c.71-.057 1.418-.057 2.068-.057 1.891 0 3.132.057 3.664.172.295.057.473.172.532.287.059.058.118.632.236 1.609l.118.861h.887l-.118-3.39.118-3.159h-.887l-.118.862c-.118.69-.177 1.091-.236 1.149-.06.115-.236.172-.532.23-.709.115-1.714.172-2.895.172-.828 0-1.773 0-2.837-.057V17.81c.06-1.839.06-2.93.06-3.16 0-.46.058-.92.118-1.379a26.254 26.254 0 012.954-.172c.945 0 1.832.057 2.541.115.71.057 1.36.23 1.832.344.177.575.295 1.437.354 2.586h.887c0-1.15.177-2.47.236-3.332 0 0 .06 0 0 0z" fill="#E56A24"/><path d="M55.782 14.65c0-.69.118-1.15.236-1.322.06-.114.237-.23.473-.344.236-.058.946-.115 2.068-.173v-.861c-2.482.057-3.9.114-4.136.114-.768 0-2.187-.057-4.196-.114v.861c1.123 0 1.832.058 2.069.173a.862.862 0 01.531.344c.119.173.178.69.178 1.552.059 1.206.059 2.412.059 3.676v1.954c-1.241.057-2.896.115-4.964.115-2.718 0-4.964-.058-6.855-.115v-1.954c.06-2.413.06-3.734.06-3.964 0-.69.118-1.149.236-1.321.118-.115.236-.23.532-.345.236-.057.945-.115 2.068-.172v-.862l-4.077.172-4.196-.114h-.177v.861h.059c1.123 0 1.773.058 2.01.173a.861.861 0 01.53.344c.12.173.178.69.178 1.552.06 1.206.06 2.412.06 3.676v6.435c-.06 2.413-.06 3.734-.06 3.907 0 .689-.118 1.149-.236 1.32a1.36 1.36 0 01-.532.346c-.236.057-.945.114-2.068.172v.862c1.477-.058 2.954-.115 4.432-.115 1.359 0 2.659.057 3.959.115v-.862c-1.123 0-1.832-.058-2.068-.172a.862.862 0 01-.532-.345c-.118-.172-.178-.69-.178-1.551 0-1.207-.059-2.413-.059-3.677v-3.16c2.305-.057 4.255-.115 5.732-.115 1.36 0 3.368.058 6.087.115v3.16c-.06 2.413-.06 3.734-.06 3.907 0 .689-.118 1.149-.236 1.32a1.36 1.36 0 01-.532.346c-.236.057-.945.114-2.068.172v.862c1.36-.058 2.6-.115 3.841-.115 1.182 0 2.66.057 4.491.115v-.862c-1.123 0-1.773-.058-2.068-.172-.236-.058-.414-.23-.532-.345-.118-.172-.177-.69-.177-1.551-.06-1.207-.06-2.413-.06-3.677v-6.377c.119-2.47.178-3.792.178-3.964zm14.654 14.822l-.473.977c-.65.402-1.122.69-1.418.804-.473.173-.945.345-1.536.517a9.428 9.428 0 01-1.832.173c-1.241 0-2.364-.23-3.428-.747-1.004-.517-1.831-1.264-2.363-2.298-.591-1.034-.827-2.183-.827-3.562 0-1.034.177-2.01.472-2.873.296-.861.65-1.493 1.005-1.896a9.672 9.672 0 011.3-1.034 10.17 10.17 0 011.714-.919c.768-.287 1.536-.46 2.422-.46 1.064 0 2.01.23 2.896.69a4.093 4.093 0 011.89 1.953c.414.805.592 1.724.592 2.758 0 .287 0 .574-.06.92-.709.114-1.3.229-1.831.229-1.005.057-2.069.115-3.073.115h-4.55c0 1.321.236 2.413.709 3.217.473.804 1.064 1.436 1.89 1.838.77.403 1.596.575 2.483.575a5.63 5.63 0 001.713-.287c.591-.173 1.3-.517 2.128-1.034l.177.344zm-9.1-5.63c.236 0 .768.058 1.536.058 1.418.057 2.364.057 2.896.057 1.24 0 2.068 0 2.481-.057v-.517c0-1.437-.295-2.528-.886-3.218-.59-.69-1.418-1.034-2.423-1.034-1.063 0-1.95.402-2.6 1.15-.65.746-1.004 1.895-1.004 3.561zm12.114-1.724l-.768-.172v-1.781c1.182-.747 2.186-1.264 2.954-1.551a7.032 7.032 0 012.01-.287c1.063 0 2.009.172 2.718.574a3.64 3.64 0 011.654 1.724c.237.517.355 1.206.355 2.125l-.06 2.528v4.137c0 .46.06.747.119.976.059.115.118.23.295.288.118.057.296.115.591.115l.946.057v.804c-.768-.057-1.478-.115-2.069-.115-.59 0-1.359.058-2.304.115l.059-2.413c-1.95 1.437-3.073 2.24-3.427 2.413a3.154 3.154 0 01-1.36.287c-1.122 0-2.067-.287-2.659-.919-.65-.574-.945-1.379-.945-2.355 0-.632.118-1.207.355-1.724.236-.517.472-.919.827-1.264.295-.287.65-.517.945-.69.532-.229 1.419-.516 2.66-.803 1.24-.288 2.481-.517 3.663-.632 0-.862-.118-1.552-.354-2.069a2.37 2.37 0 00-1.182-1.206c-.532-.287-1.182-.46-2.01-.46-.59 0-1.063.058-1.477.23-.413.172-.709.287-.768.402l-.236.517c-.236.402-.414.862-.532 1.15zm6.56 2.184c-1.242.23-2.305.402-3.192.689-.886.23-1.477.517-1.832.804-.236.173-.413.402-.59.69-.237.46-.355.976-.355 1.55 0 .69.177 1.207.59 1.61.415.402.946.574 1.655.574.65 0 1.241-.172 1.891-.517.65-.345 1.241-.862 1.832-1.609v-3.791zm4.49 7.353v-.804h1.36a.935.935 0 00.472-.115.455.455 0 00.236-.23c.118-.172.178-.517.178-.976 0-.115.059-1.437.118-3.964V19.82c0-1.552 0-3.16-.06-4.769-.058-1.091-.118-1.723-.177-1.838-.059-.115-.118-.173-.236-.173-.118-.057-.827-.114-2.01-.114v-.862c2.128-.287 3.665-.575 4.492-.977.118-.057.236-.057.295-.057.06 0 .118 0 .177.057.06.058.06.115.06.172v.748c-.06 1.665-.06 3.044-.06 4.25v9.365c.06 2.413.06 3.677.06 3.907 0 .46.059.804.177 1.034.059.057.118.172.177.23.06.057.177.115.355.172.059 0 .59 0 1.595.057v.805c-1.3-.058-2.423-.115-3.427-.115-1.005-.172-2.246-.172-3.782-.058zm7.328-10.915v-.575c.886-.344 1.655-.689 2.186-.919v-4.194c1.005-.344 1.773-.69 2.423-1.091l.355.287c-.118.747-.237 2.47-.355 5.056h2.837c.472 0 .886 0 1.122-.058l.119.115-.296 1.264h-3.723l-.059 5.63v2.47c.06.288.118.518.296.69.118.172.295.345.531.46.237.114.591.23 1.064.287.414 0 .71 0 .946-.058.236-.057.531-.115.945-.23l.177.518c-.472.344-.886.689-1.3 1.091-.354.115-.709.23-1.004.23-.296.057-.65.057-1.064.057-.532 0-.886-.057-1.182-.172a3.794 3.794 0 01-.827-.46 1.874 1.874 0 01-.59-.746c-.178-.288-.296-.805-.296-1.437s0-1.321.059-2.068v-6.205H93.6c-.65 0-1.182.058-1.773.058z" fill="#fff"/><path d="M100.277 31.655v-.804h1.359a.929.929 0 00.473-.115.46.46 0 00.237-.23c.118-.172.177-.517.177-.976 0-.115.059-1.437.118-3.964v-7.182c0-1.55 0-3.16-.059-4.768-.059-1.092-.118-1.724-.177-1.838-.059-.115-.119-.173-.237-.173-.118-.057-.827-.115-1.95-.115v-.804c2.128-.287 3.664-.575 4.491-.977.118-.057.237-.057.296-.057s.118 0 .177.057c.059.058.059.115.059.173v.747c-.059 1.666-.059 3.044-.059 4.25v6.205c.118-.114.532-.402 1.123-.919s1.004-.861 1.122-.919c.178-.172.296-.287.414-.345.177-.114.473-.172.827-.287a5.99 5.99 0 011.418-.172c.887 0 1.714.23 2.482.574.769.403 1.3.92 1.655 1.494.295.632.473 1.494.473 2.7v2.413l.059 1.896c0 1.207.059 1.838.059 2.01 0 .46.059.748.177.977a.79.79 0 00.177.23c.059.058.178.115.355.115.059 0 .532 0 1.477.058v.804c-1.063-.058-1.891-.058-2.363-.058-.414 0-1.3 0-2.6.058.118-1.379.177-2.7.177-3.964v-3.447c0-1.092-.059-1.839-.237-2.298a2.542 2.542 0 00-1.004-1.264c-.473-.402-1.182-.575-2.009-.575-.532 0-1.005.058-1.418.23-.414.172-.769.345-1.123.69-.355.287-.65.631-.887.976-.118.173-.177.345-.236.632-.059.23-.059.69-.059 1.436v1.609c.059 2.413.059 3.677.059 3.907 0 .46.059.804.177 1.034.059.115.119.172.178.23.059.057.177.114.354.114.059 0 .591 0 1.596.058v.804c-1.714-.057-2.837-.115-3.487-.115-.709-.23-1.95-.23-3.841-.114z" fill="#fff"/></svg>